<svg xmlns="http://www.w3.org/2000/svg" xmlns:xlink="http://www.w3.org/1999/xlink" width="500" zoomAndPan="magnify" viewBox="0 0 375 374.999991" height="500" preserveAspectRatio="xMidYMid meet" version="1.0"><defs><clipPath id="id1"><path d="M 102 45 L 273 45 L 273 337 L 102 337 Z M 102 45 " clip-rule="nonzero"/></clipPath><clipPath id="id2"><path d="M 33.917969 95.296875 L 278.191406 24.765625 L 348.097656 266.875 L 103.824219 337.40625 Z M 33.917969 95.296875 " clip-rule="nonzero"/></clipPath><clipPath id="id3"><path d="M 278.257812 24.746094 L 33.988281 95.277344 L 103.894531 337.386719 L 348.164062 266.855469 Z M 278.257812 24.746094 " clip-rule="nonzero"/></clipPath><clipPath id="id4"><path d="M 109 47 L 271 47 L 271 312 L 109 312 Z M 109 47 " clip-rule="nonzero"/></clipPath><clipPath id="id5"><path d="M 33.917969 95.296875 L 278.191406 24.765625 L 348.097656 266.875 L 103.824219 337.40625 Z M 33.917969 95.296875 " clip-rule="nonzero"/></clipPath><clipPath id="id6"><path d="M 278.257812 24.746094 L 33.988281 95.277344 L 103.894531 337.386719 L 348.164062 266.855469 Z M 278.257812 24.746094 " clip-rule="nonzero"/></clipPath><clipPath id="id7"><path d="M 108 46 L 271 46 L 271 313 L 108 313 Z M 108 46 " clip-rule="nonzero"/></clipPath><clipPath id="id8"><path d="M 33.917969 95.296875 L 278.191406 24.765625 L 348.097656 266.875 L 103.824219 337.40625 Z M 33.917969 95.296875 " clip-rule="nonzero"/></clipPath><clipPath id="id9"><path d="M 278.257812 24.746094 L 33.988281 95.277344 L 103.894531 337.386719 L 348.164062 266.855469 Z M 278.257812 24.746094 " clip-rule="nonzero"/></clipPath><clipPath id="id10"><path d="M 118 48 L 270 48 L 270 311 L 118 311 Z M 118 48 " clip-rule="nonzero"/></clipPath><clipPath id="id11"><path d="M 33.917969 95.296875 L 278.191406 24.765625 L 348.097656 266.875 L 103.824219 337.40625 Z M 33.917969 95.296875 " clip-rule="nonzero"/></clipPath><clipPath id="id12"><path d="M 278.257812 24.746094 L 33.988281 95.277344 L 103.894531 337.386719 L 348.164062 266.855469 Z M 278.257812 24.746094 " clip-rule="nonzero"/></clipPath><clipPath id="id13"><path d="M 118 232 L 207 232 L 207 311 L 118 311 Z M 118 232 " clip-rule="nonzero"/></clipPath><clipPath id="id14"><path d="M 33.917969 95.296875 L 278.191406 24.765625 L 348.097656 266.875 L 103.824219 337.40625 Z M 33.917969 95.296875 " clip-rule="nonzero"/></clipPath><clipPath id="id15"><path d="M 278.257812 24.746094 L 33.988281 95.277344 L 103.894531 337.386719 L 348.164062 266.855469 Z M 278.257812 24.746094 " clip-rule="nonzero"/></clipPath><clipPath id="id16"><path d="M 117 46 L 265 46 L 265 312 L 117 312 Z M 117 46 " clip-rule="nonzero"/></clipPath><clipPath id="id17"><path d="M 33.917969 95.296875 L 278.191406 24.765625 L 348.097656 266.875 L 103.824219 337.40625 Z M 33.917969 95.296875 " clip-rule="nonzero"/></clipPath><clipPath id="id18"><path d="M 278.257812 24.746094 L 33.988281 95.277344 L 103.894531 337.386719 L 348.164062 266.855469 Z M 278.257812 24.746094 " clip-rule="nonzero"/></clipPath><clipPath id="id19"><path d="M 117 46 L 271 46 L 271 313 L 117 313 Z M 117 46 " clip-rule="nonzero"/></clipPath><clipPath id="id20"><path d="M 33.917969 95.296875 L 278.191406 24.765625 L 348.097656 266.875 L 103.824219 337.40625 Z M 33.917969 95.296875 " clip-rule="nonzero"/></clipPath><clipPath id="id21"><path d="M 278.257812 24.746094 L 33.988281 95.277344 L 103.894531 337.386719 L 348.164062 266.855469 Z M 278.257812 24.746094 " clip-rule="nonzero"/></clipPath><clipPath id="id22"><path d="M 117 48 L 268 48 L 268 311 L 117 311 Z M 117 48 " clip-rule="nonzero"/></clipPath><clipPath id="id23"><path d="M 33.917969 95.296875 L 278.191406 24.765625 L 348.097656 266.875 L 103.824219 337.40625 Z M 33.917969 95.296875 " clip-rule="nonzero"/></clipPath><clipPath id="id24"><path d="M 278.257812 24.746094 L 33.988281 95.277344 L 103.894531 337.386719 L 348.164062 266.855469 Z M 278.257812 24.746094 " clip-rule="nonzero"/></clipPath><clipPath id="id25"><path d="M 104 48 L 265 48 L 265 335 L 104 335 Z M 104 48 " clip-rule="nonzero"/></clipPath><clipPath id="id26"><path d="M 33.917969 95.296875 L 278.191406 24.765625 L 348.097656 266.875 L 103.824219 337.40625 Z M 33.917969 95.296875 " clip-rule="nonzero"/></clipPath><clipPath id="id27"><path d="M 278.257812 24.746094 L 33.988281 95.277344 L 103.894531 337.386719 L 348.164062 266.855469 Z M 278.257812 24.746094 " clip-rule="nonzero"/></clipPath></defs><g clip-path="url(#id1)"><g clip-path="url(#id2)"><g clip-path="url(#id3)"><path fill="rgb(100%, 100%, 100%)" d="M 115.226562 310.113281 C 112.34375 305.835938 107.265625 295.792969 107.394531 278.375 C 107.570312 254.550781 117.21875 225.871094 136.070312 193.132812 C 136.390625 192.582031 136.945312 192.21875 137.574219 192.148438 C 138.203125 192.085938 138.828125 192.320312 139.253906 192.785156 C 139.414062 192.964844 140.703125 194.390625 142.570312 196.589844 L 139.015625 189.4375 C 138.570312 188.550781 138.855469 187.472656 139.679688 186.917969 C 140.5 186.363281 141.605469 186.5 142.265625 187.238281 L 142.6875 187.710938 L 141.40625 185.074219 C 141.128906 184.503906 141.140625 183.835938 141.4375 183.277344 C 141.601562 182.972656 157.992188 152.1875 179.757812 120.195312 C 209.164062 76.972656 233.894531 52.222656 253.265625 46.628906 C 256.898438 45.578125 260.390625 45.203125 263.609375 45.507812 C 263.804688 45.523438 264.003906 45.542969 264.199219 45.566406 C 264.722656 45.621094 265.199219 45.878906 265.53125 46.285156 C 294.875 82.371094 217.734375 217.820312 214.4375 223.566406 C 214.121094 224.113281 213.566406 224.480469 212.941406 224.546875 L 210.027344 224.871094 L 210.648438 224.976562 C 211.625 225.136719 212.332031 226 212.300781 226.992188 C 212.269531 227.980469 211.507812 228.792969 210.519531 228.898438 L 202.566406 229.707031 C 205.433594 230.117188 207.339844 230.449219 207.574219 230.492188 C 208.195312 230.601562 208.730469 231 209.007812 231.570312 C 209.285156 232.136719 209.273438 232.804688 208.980469 233.363281 C 179.871094 288.480469 152.160156 306.285156 134.039062 311.519531 C 128.234375 313.195312 123.765625 313.4375 121.089844 313.359375 L 108.972656 335.277344 C 108.707031 335.757812 108.277344 336.082031 107.789062 336.222656 C 107.300781 336.363281 106.761719 336.320312 106.28125 336.054688 L 103.910156 334.746094 C 102.953125 334.21875 102.605469 333.015625 103.132812 332.058594 L 115.226562 310.113281 " fill-opacity="1" fill-rule="nonzero"/></g></g></g><g clip-path="url(#id4)"><g clip-path="url(#id5)"><g clip-path="url(#id6)"><path fill="rgb(14.509583%, 14.509583%, 14.509583%)" d="M 143.171875 184.214844 L 150.671875 199.671875 L 140.769531 188.5625 L 155.441406 218.070312 C 150.085938 207.671875 137.773438 194.125 137.773438 194.125 C 88.273438 280.074219 118.484375 311.140625 118.484375 311.140625 C 118.484375 311.140625 160.890625 320.152344 207.214844 232.445312 C 207.214844 232.445312 189.191406 229.253906 177.554688 230.273438 L 210.304688 226.9375 L 195.648438 224.492188 L 212.703125 222.585938 C 212.703125 222.585938 292.804688 82.988281 263.980469 47.539062 C 218.621094 42.050781 143.171875 184.214844 143.171875 184.214844 " fill-opacity="1" fill-rule="nonzero"/></g></g></g><g clip-path="url(#id7)"><g clip-path="url(#id8)"><g clip-path="url(#id9)"><path fill="rgb(100%, 100%, 100%)" d="M 143.171875 184.214844 L 143.765625 183.925781 L 151.265625 199.382812 C 151.410156 199.675781 151.3125 200.035156 151.039062 200.21875 C 150.765625 200.398438 150.398438 200.355469 150.179688 200.109375 L 143.554688 192.675781 L 156.035156 217.777344 C 156.195312 218.097656 156.0625 218.492188 155.742188 218.65625 C 155.417969 218.824219 155.023438 218.691406 154.855469 218.375 C 152.21875 213.246094 147.816406 207.277344 144.085938 202.609375 C 142.214844 200.277344 140.511719 198.261719 139.28125 196.835938 C 138.664062 196.121094 138.164062 195.554688 137.820312 195.167969 C 137.472656 194.777344 137.285156 194.570312 137.285156 194.570312 L 137.773438 194.125 L 138.347656 194.453125 C 106.910156 249.050781 107.75 281.3125 112.417969 297.480469 C 113.753906 302.105469 115.402344 305.417969 116.710938 307.570312 C 117.367188 308.644531 117.933594 309.429688 118.335938 309.941406 C 118.535156 310.199219 118.695312 310.386719 118.804688 310.507812 C 118.855469 310.570312 118.898438 310.613281 118.921875 310.640625 L 118.953125 310.671875 L 118.957031 310.679688 L 118.484375 311.140625 L 118.621094 310.492188 L 118.628906 310.496094 C 118.882812 310.542969 124.320312 311.578125 133.292969 308.992188 C 149.464844 304.320312 177.210938 287.832031 206.632812 232.140625 L 207.214844 232.445312 L 207.101562 233.09375 C 207.097656 233.097656 206.824219 233.046875 206.308594 232.960938 C 204.515625 232.664062 199.855469 231.9375 194.382812 231.390625 C 188.914062 230.84375 182.628906 230.492188 177.613281 230.929688 C 177.25 230.960938 176.933594 230.695312 176.898438 230.335938 C 176.863281 229.972656 177.128906 229.652344 177.488281 229.617188 L 205.347656 226.777344 L 195.539062 225.140625 C 195.214844 225.089844 194.980469 224.800781 194.988281 224.472656 C 194.996094 224.144531 195.25 223.871094 195.574219 223.832031 L 212.632812 221.933594 L 212.703125 222.585938 L 212.132812 222.257812 C 212.132812 222.257812 212.402344 221.792969 212.902344 220.902344 C 216.660156 214.222656 233.511719 183.789062 247.871094 149.710938 C 255.046875 132.671875 261.601562 114.71875 265.585938 98.386719 C 269.578125 82.054688 270.96875 67.339844 267.933594 56.859375 C 266.9375 53.40625 265.46875 50.414062 263.464844 47.957031 L 263.980469 47.539062 L 263.902344 48.195312 C 260.753906 47.8125 257.4375 48.164062 253.984375 49.164062 C 242.796875 52.382812 230.222656 62.433594 217.757812 75.738281 C 199.046875 95.6875 180.53125 122.894531 166.710938 145.105469 C 159.796875 156.210938 154.058594 166.066406 150.046875 173.148438 C 148.042969 176.6875 146.46875 179.53125 145.394531 181.492188 C 144.859375 182.472656 144.449219 183.230469 144.171875 183.746094 C 143.894531 184.257812 143.753906 184.523438 143.753906 184.523438 L 143.171875 184.214844 L 143.765625 183.925781 L 143.171875 184.214844 L 142.589844 183.90625 C 142.59375 183.890625 158.859375 153.25 180.839844 120.941406 C 191.828125 104.78125 204.246094 88.210938 216.792969 74.832031 C 229.34375 61.460938 242 51.257812 253.617188 47.894531 C 257.207031 46.859375 260.703125 46.480469 264.058594 46.886719 C 264.230469 46.90625 264.382812 46.992188 264.488281 47.125 C 266.625 49.746094 268.164062 52.902344 269.203125 56.496094 C 272.546875 68.117188 270.660156 84.257812 266.035156 102.007812 C 259.082031 128.617188 245.894531 158.828125 234.445312 182.40625 C 222.996094 205.976562 213.285156 222.90625 213.277344 222.914062 C 213.175781 223.097656 212.988281 223.21875 212.78125 223.242188 L 200.433594 224.621094 L 210.414062 226.285156 C 210.742188 226.339844 210.976562 226.628906 210.96875 226.957031 C 210.957031 227.289062 210.703125 227.558594 210.371094 227.59375 L 177.621094 230.929688 L 177.554688 230.273438 L 177.5 229.617188 C 183.398438 229.101562 190.835938 229.648438 196.824219 230.320312 C 202.800781 230.996094 207.320312 231.796875 207.328125 231.796875 C 207.539062 231.835938 207.714844 231.964844 207.808594 232.15625 C 207.902344 232.347656 207.898438 232.566406 207.796875 232.753906 C 178.285156 288.644531 150.261719 305.464844 133.65625 310.257812 C 124.164062 313 118.429688 311.800781 118.347656 311.78125 C 118.214844 311.757812 118.105469 311.691406 118.011719 311.597656 C 117.949219 311.535156 113.886719 307.328125 111.148438 297.847656 C 106.355469 281.25 105.648438 248.578125 137.199219 193.796875 C 137.304688 193.613281 137.492188 193.492188 137.703125 193.472656 C 137.914062 193.449219 138.121094 193.523438 138.261719 193.683594 C 138.265625 193.6875 141.351562 197.085938 145.113281 201.789062 C 148.875 206.492188 153.308594 212.492188 156.03125 217.765625 L 155.441406 218.070312 L 154.855469 218.363281 L 140.183594 188.855469 C 140.035156 188.5625 140.128906 188.203125 140.402344 188.015625 C 140.675781 187.832031 141.046875 187.878906 141.265625 188.125 L 148.007812 195.6875 L 142.578125 184.503906 C 142.484375 184.316406 142.488281 184.089844 142.589844 183.90625 L 143.171875 184.214844 " fill-opacity="1" fill-rule="nonzero"/></g></g></g><g clip-path="url(#id10)"><g clip-path="url(#id11)"><g clip-path="url(#id12)"><path fill="rgb(14.509583%, 14.509583%, 14.509583%)" d="M 133.292969 308.992188 C 149.390625 304.339844 176.941406 287.992188 206.203125 232.945312 C 204.335938 232.636719 199.75 231.921875 194.382812 231.390625 C 188.921875 230.847656 182.636719 230.492188 177.621094 230.929688 C 177.621094 230.929688 177.613281 230.929688 177.613281 230.929688 C 177.296875 230.957031 177.007812 230.753906 176.921875 230.457031 C 176.910156 230.417969 176.902344 230.378906 176.898438 230.335938 C 176.867188 230.015625 177.070312 229.726562 177.371094 229.640625 C 177.40625 229.628906 177.449219 229.621094 177.488281 229.617188 L 205.347656 226.777344 L 195.539062 225.140625 C 195.28125 225.097656 195.085938 224.910156 195.015625 224.675781 C 194.996094 224.609375 194.988281 224.542969 194.988281 224.472656 C 194.996094 224.183594 195.195312 223.9375 195.464844 223.855469 C 195.5 223.847656 195.535156 223.839844 195.574219 223.832031 L 212.296875 221.96875 C 212.425781 221.742188 212.632812 221.386719 212.902344 220.902344 C 216.660156 214.222656 233.511719 183.789062 247.871094 149.710938 C 255.046875 132.671875 261.601562 114.71875 265.585938 98.386719 C 269.570312 82.070312 270.964844 67.367188 267.941406 56.890625 C 267.941406 56.878906 267.9375 56.871094 267.933594 56.859375 C 266.964844 53.503906 265.550781 50.585938 263.636719 48.167969 C 263.550781 48.160156 263.472656 48.152344 263.394531 48.144531 L 118.664062 310.351562 C 118.71875 310.410156 118.761719 310.464844 118.804688 310.507812 C 118.808594 310.515625 118.816406 310.519531 118.820312 310.527344 C 119.882812 310.699219 125.125 311.347656 133.292969 308.992188 " fill-opacity="1" fill-rule="nonzero"/></g></g></g><g clip-path="url(#id13)"><g clip-path="url(#id14)"><g clip-path="url(#id15)"><path fill="rgb(100%, 100%, 100%)" d="M 133.292969 308.992188 C 149.390625 304.339844 176.941406 287.992188 206.203125 232.945312 C 176.941406 287.992188 149.390625 304.339844 133.292969 308.992188 C 125.125 311.347656 119.882812 310.699219 118.820312 310.527344 C 118.816406 310.519531 118.808594 310.515625 118.804688 310.507812 C 118.761719 310.464844 118.71875 310.410156 118.664062 310.351562 C 118.722656 310.417969 118.773438 310.476562 118.8125 310.523438 C 118.8125 310.523438 118.8125 310.527344 118.816406 310.527344 C 119.867188 310.695312 125.113281 311.351562 133.292969 308.992188 " fill-opacity="1" fill-rule="nonzero"/></g></g></g><g clip-path="url(#id16)"><g clip-path="url(#id17)"><g clip-path="url(#id18)"><path fill="rgb(100%, 100%, 100%)" d="M 118.054688 311.636719 C 118.054688 311.636719 118.054688 311.636719 118.050781 311.636719 C 118.054688 311.636719 118.054688 311.636719 118.054688 311.636719 M 118.050781 311.636719 C 118.035156 311.625 118.023438 311.609375 118.011719 311.597656 C 117.996094 311.585938 117.847656 311.429688 117.589844 311.121094 C 117.84375 311.433594 118.003906 311.59375 118.027344 311.613281 C 118.035156 311.621094 118.042969 311.628906 118.050781 311.636719 M 264.089844 46.890625 C 264.089844 46.886719 264.085938 46.890625 264.085938 46.890625 C 264.085938 46.890625 264.089844 46.886719 264.089844 46.890625 M 264.085938 46.890625 C 264.074219 46.886719 264.066406 46.886719 264.054688 46.882812 C 264.054688 46.882812 264.054688 46.886719 264.058594 46.886719 C 264.066406 46.886719 264.074219 46.890625 264.085938 46.890625 " fill-opacity="1" fill-rule="nonzero"/></g></g></g><g clip-path="url(#id19)"><g clip-path="url(#id20)"><g clip-path="url(#id21)"><path fill="rgb(100%, 100%, 100%)" d="M 133.664062 310.253906 C 150.269531 305.460938 178.285156 288.636719 207.796875 232.753906 C 207.878906 232.601562 207.894531 232.429688 207.851562 232.265625 C 207.839844 232.226562 207.824219 232.191406 207.808594 232.15625 C 207.714844 231.964844 207.539062 231.835938 207.328125 231.796875 C 207.320312 231.796875 202.800781 230.996094 196.824219 230.320312 C 194.644531 230.078125 192.277344 229.847656 189.859375 229.683594 L 210.371094 227.59375 C 210.414062 227.585938 210.453125 227.582031 210.488281 227.570312 C 210.757812 227.492188 210.957031 227.246094 210.96875 226.957031 C 210.96875 226.882812 210.960938 226.816406 210.941406 226.75 C 210.871094 226.511719 210.671875 226.328125 210.414062 226.285156 L 200.433594 224.621094 L 212.78125 223.242188 C 212.816406 223.238281 212.851562 223.230469 212.886719 223.222656 C 213.050781 223.171875 213.191406 223.066406 213.277344 222.914062 C 213.285156 222.90625 222.996094 205.976562 234.445312 182.40625 C 245.894531 158.828125 259.082031 128.617188 266.035156 102.007812 C 270.660156 84.257812 272.546875 68.117188 269.203125 56.496094 C 268.164062 52.902344 266.625 49.746094 264.488281 47.125 C 264.390625 47 264.246094 46.917969 264.089844 46.890625 C 264.089844 46.886719 264.085938 46.890625 264.085938 46.890625 C 264.074219 46.890625 264.066406 46.886719 264.058594 46.886719 C 264.054688 46.886719 264.054688 46.882812 264.054688 46.882812 C 264.054688 46.886719 264.050781 46.886719 264.046875 46.882812 C 263.730469 46.851562 263.363281 46.804688 262.996094 46.8125 C 262.9375 46.816406 262.882812 46.824219 262.828125 46.839844 C 262.660156 46.886719 262.519531 47 262.433594 47.152344 L 261.9375 48.054688 C 262.507812 48.066406 263.074219 48.105469 263.632812 48.164062 C 265.550781 50.585938 266.964844 53.503906 267.933594 56.859375 C 267.9375 56.871094 267.941406 56.878906 267.941406 56.890625 C 270.964844 67.367188 269.570312 82.070312 265.585938 98.386719 C 261.601562 114.71875 255.046875 132.671875 247.871094 149.710938 C 233.511719 183.789062 216.660156 214.222656 212.902344 220.902344 C 212.632812 221.386719 212.425781 221.742188 212.296875 221.96875 L 195.574219 223.832031 C 195.535156 223.839844 195.5 223.847656 195.464844 223.855469 C 195.195312 223.9375 194.996094 224.183594 194.988281 224.472656 C 194.988281 224.542969 194.996094 224.609375 195.015625 224.675781 C 195.085938 224.910156 195.28125 225.097656 195.539062 225.140625 L 205.347656 226.777344 L 177.488281 229.617188 C 177.449219 229.621094 177.40625 229.628906 177.371094 229.640625 C 177.070312 229.726562 176.867188 230.015625 176.898438 230.335938 C 176.902344 230.378906 176.910156 230.417969 176.921875 230.457031 C 177.007812 230.753906 177.296875 230.957031 177.613281 230.929688 C 177.613281 230.929688 177.621094 230.929688 177.621094 230.929688 C 182.636719 230.492188 188.921875 230.847656 194.382812 231.390625 C 199.75 231.921875 204.335938 232.636719 206.203125 232.945312 C 176.941406 287.992188 149.390625 304.339844 133.292969 308.992188 C 125.113281 311.351562 119.867188 310.695312 118.816406 310.527344 C 118.8125 310.527344 118.8125 310.523438 118.8125 310.523438 C 118.773438 310.476562 118.722656 310.417969 118.664062 310.351562 C 118.574219 310.242188 118.464844 310.105469 118.335938 309.941406 C 118.179688 309.738281 117.992188 309.496094 117.789062 309.207031 L 117.300781 310.09375 L 117.878906 310.410156 L 117.300781 310.09375 C 117.175781 310.320312 117.195312 310.597656 117.347656 310.800781 C 117.4375 310.921875 117.515625 311.027344 117.589844 311.121094 C 117.847656 311.429688 117.996094 311.585938 118.011719 311.597656 C 118.023438 311.609375 118.035156 311.625 118.050781 311.636719 C 118.054688 311.636719 118.054688 311.636719 118.054688 311.636719 C 118.136719 311.710938 118.238281 311.761719 118.347656 311.78125 C 118.429688 311.800781 124.160156 313 133.65625 310.257812 C 133.65625 310.257812 133.660156 310.257812 133.664062 310.253906 " fill-opacity="1" fill-rule="nonzero"/></g></g></g><g clip-path="url(#id22)"><g clip-path="url(#id23)"><g clip-path="url(#id24)"><path fill="rgb(100%, 100%, 100%)" d="M 118.664062 310.351562 L 263.394531 48.144531 C 263.472656 48.152344 263.550781 48.160156 263.636719 48.167969 C 265.550781 50.585938 266.964844 53.503906 267.933594 56.859375 C 267.9375 56.871094 267.941406 56.878906 267.941406 56.890625 C 267.941406 56.878906 267.9375 56.871094 267.933594 56.859375 C 266.964844 53.503906 265.550781 50.585938 263.632812 48.164062 C 263.074219 48.105469 262.507812 48.066406 261.9375 48.054688 L 117.789062 309.207031 C 117.992188 309.496094 118.179688 309.738281 118.335938 309.941406 C 118.464844 310.105469 118.574219 310.242188 118.664062 310.351562 M 206.203125 232.945312 C 204.335938 232.636719 199.75 231.921875 194.382812 231.390625 C 188.921875 230.847656 182.636719 230.492188 177.621094 230.929688 C 182.636719 230.492188 188.921875 230.847656 194.382812 231.390625 C 199.75 231.921875 204.335938 232.636719 206.203125 232.945312 M 205.347656 226.777344 L 195.539062 225.140625 C 195.28125 225.097656 195.085938 224.910156 195.015625 224.675781 C 195.085938 224.910156 195.28125 225.097656 195.539062 225.140625 L 205.347656 226.777344 M 177.621094 230.929688 C 177.621094 230.929688 177.613281 230.929688 177.613281 230.929688 C 177.296875 230.957031 177.007812 230.753906 176.921875 230.457031 C 177.007812 230.753906 177.296875 230.957031 177.613281 230.929688 C 177.613281 230.929688 177.621094 230.929688 177.621094 230.929688 " fill-opacity="1" fill-rule="nonzero"/></g></g></g><g clip-path="url(#id25)"><g clip-path="url(#id26)"><g clip-path="url(#id27)"><path fill="rgb(100%, 100%, 100%)" d="M 261.488281 48.75 L 264.277344 50.289062 L 107.226562 334.328125 L 104.851562 333.019531 L 261.488281 48.75 " fill-opacity="1" fill-rule="nonzero"/><path fill="rgb(100%, 100%, 100%)" d="M 261.488281 48.75 L 261.808594 48.171875 L 264.59375 49.710938 C 264.75 49.796875 264.863281 49.9375 264.910156 50.105469 C 264.960938 50.273438 264.941406 50.453125 264.855469 50.609375 L 107.800781 334.648438 C 107.625 334.964844 107.226562 335.082031 106.90625 334.90625 L 104.535156 333.597656 C 104.214844 333.421875 104.101562 333.019531 104.277344 332.703125 L 260.910156 48.429688 C 260.996094 48.277344 261.136719 48.164062 261.304688 48.117188 C 261.472656 48.066406 261.65625 48.085938 261.808594 48.171875 L 261.488281 48.75 L 262.066406 49.070312 L 105.75 332.761719 L 106.964844 333.433594 L 263.378906 50.546875 L 261.167969 49.328125 L 261.488281 48.75 L 262.066406 49.070312 L 261.488281 48.75 " fill-opacity="1" fill-rule="nonzero"/></g></g></g></svg>